<?xml version="1.0" encoding="UTF-8"?>
<svg xmlns="http://www.w3.org/2000/svg" viewBox="0 0 1600 900" role="img" aria-labelledby="heroTitle heroDesc">
  <title id="heroTitle">Abstract Calming Wellness Background</title>
  <desc id="heroDesc">Soft teal and emerald gradient background with subtle organic blobs, waves and a light radial glow evoking calm mental health care.</desc>
  <defs>
    <radialGradient id="radGlow" cx="50%" cy="40%" r="65%">
      <stop offset="0%" stop-color="#25d0b4" stop-opacity="0.35"/>
      <stop offset="60%" stop-color="#088f79" stop-opacity="0.08"/>
      <stop offset="100%" stop-color="#035e4f" stop-opacity="0"/>
    </radialGradient>
    <linearGradient id="bgGrad" x1="0" y1="0" x2="1" y2="1">
      <stop offset="0%" stop-color="#064e44"/>
      <stop offset="50%" stop-color="#056454"/>
      <stop offset="100%" stop-color="#0a7b66"/>
    </linearGradient>
    <linearGradient id="blobA" x1="0" y1="0" x2="1" y2="1">
      <stop offset="0%" stop-color="#3fe0c6" stop-opacity="0.75"/>
      <stop offset="100%" stop-color="#0e8e78" stop-opacity="0.15"/>
    </linearGradient>
    <linearGradient id="blobB" x1="1" y1="0" x2="0" y2="1">
      <stop offset="0%" stop-color="#46f0d2" stop-opacity="0.55"/>
      <stop offset="100%" stop-color="#0a7864" stop-opacity="0.05"/>
    </linearGradient>
    <pattern id="grid" width="80" height="80" patternUnits="userSpaceOnUse" patternTransform="rotate(12)">
      <circle cx="0" cy="0" r="1.2" fill="#ffffff" fill-opacity="0.06"/>
      <circle cx="40" cy="40" r="1.2" fill="#ffffff" fill-opacity="0.05"/>
    </pattern>
    <filter id="blurSoft" x="-20%" y="-20%" width="140%" height="140%">
      <feGaussianBlur stdDeviation="60" result="b" />
      <feBlend in="SourceGraphic" in2="b" mode="screen" />
    </filter>
  </defs>

  <!-- Base gradient background -->
  <rect width="1600" height="900" fill="url(#bgGrad)"/>

  <!-- Subtle radial glow -->
  <rect width="1600" height="900" fill="url(#radGlow)"/>

  <!-- Pattern overlay -->
  <rect width="1600" height="900" fill="url(#grid)" opacity="0.35"/>

  <!-- Organic blurred shapes -->
  <g filter="url(#blurSoft)">
    <path d="M400 180 C250 120 160 260 210 400 C250 520 420 560 530 470 C640 380 620 250 520 200 C480 180 440 190 400 180 Z" fill="url(#blobA)"/>
    <path d="M1180 300 C1080 180 900 240 880 380 C860 520 1020 640 1160 600 C1270 570 1300 470 1260 400 C1230 350 1210 330 1180 300 Z" fill="url(#blobB)"/>
    <path d="M950 700 C900 640 760 640 720 700 C660 790 760 860 860 840 C940 820 980 760 950 700 Z" fill="url(#blobA)" opacity="0.55"/>
    <path d="M300 690 C260 640 180 630 150 690 C110 770 180 830 260 820 C320 810 340 740 300 690 Z" fill="url(#blobB)" opacity="0.45"/>
  </g>

  <!-- Light streaks -->
  <g stroke="#ffffff" stroke-width="2" stroke-linecap="round" opacity="0.14">
    <path d="M100 150 Q300 220 520 140"/>
    <path d="M1080 180 Q1280 240 1500 160"/>
    <path d="M260 760 Q560 700 820 760"/>
  </g>

  <!-- Focus circle behind headline area -->
  <circle cx="480" cy="350" r="260" fill="rgba(255,255,255,0.07)"/>
</svg>
