<?xml version="1.0" encoding="UTF-8"?>
<svg xmlns="http://www.w3.org/2000/svg" viewBox="0 0 512 512" role="img" aria-labelledby="logoTitle logoDesc">
  <title id="logoTitle">Psychiatry PLLC Logo</title>
  <desc id="logoDesc">Four overlapping rounded leaf shapes forming a clover with a small square void in the center.</desc>
  <defs>
    <linearGradient id="g1" x1="0" y1="0" x2="1" y2="1">
      <stop offset="0%" stop-color="#00B294"/>
      <stop offset="100%" stop-color="#009B7A"/>
    </linearGradient>
    <linearGradient id="g2" x1="1" y1="0" x2="0" y2="1">
      <stop offset="0%" stop-color="#008E72"/>
      <stop offset="100%" stop-color="#00795F"/>
    </linearGradient>
    <linearGradient id="g3" x1="0" y1="1" x2="1" y2="0">
      <stop offset="0%" stop-color="#00AC8A"/>
      <stop offset="100%" stop-color="#009278"/>
    </linearGradient>
    <linearGradient id="g4" x1="1" y1="1" x2="0" y2="0">
      <stop offset="0%" stop-color="#009E80"/>
      <stop offset="100%" stop-color="#00886D"/>
    </linearGradient>
  </defs>
  <!-- Top Leaf -->
  <path d="M256 48c89.6 0 162 72.4 162 162 0 34.6-11 66.7-29.7 92.8-3.6 5-9.9 7.6-16.2 6.2-93.5-20.8-138.7-20.8-232.2 0-6.3 1.4-12.6-1.2-16.2-6.2C105 276.7 94 244.6 94 210 94 120.4 166.4 48 256 48Z" fill="url(#g1)"/>
  <!-- Right Leaf -->
  <path d="M464 256c0 89.6-72.4 162-162 162-34.6 0-66.7-11-92.8-29.7-5-3.6-7.6-9.9-6.2-16.2 20.8-93.5 20.8-138.7 0-232.2-1.4-6.3 1.2-12.6 6.2-16.2C235.3 105 267.4 94 302 94c89.6 0 162 72.4 162 162Z" fill="url(#g2)"/>
  <!-- Bottom Leaf -->
  <path d="M256 464c-89.6 0-162-72.4-162-162 0-34.6 11-66.7 29.7-92.8 3.6-5 9.9-7.6 16.2-6.2 93.5 20.8 138.7 20.8 232.2 0 6.3-1.4 12.6 1.2 16.2 6.2C407 331.3 418 363.4 418 398c0 89.6-72.4 162-162 162Z" fill="url(#g3)"/>
  <!-- Left Leaf -->
  <path d="M48 256c0-89.6 72.4-162 162-162 34.6 0 66.7 11 92.8 29.7 5 3.6 7.6 9.9 6.2 16.2-20.8 93.5-20.8 138.7 0 232.2 1.4 6.3-1.2 12.6-6.2 16.2C276.7 407 244.6 418 210 418c-89.6 0-162-72.4-162-162Z" fill="url(#g4)"/>
  <!-- Center square (void) -->
  <rect x="230" y="230" width="52" height="52" fill="#012A21" rx="2"/>
</svg>
